# This file uses centimeters as units for non-parametric coordinates.

g default
v 80.937691 75.613899 14.126241
v 59.171322 75.613899 14.126241
v 80.937691 108.233170 23.756266
v 59.171322 108.233170 23.756266
v 80.937691 86.063446 -135.776718
v 59.171322 86.063446 -135.776718
v 80.937691 57.059391 -142.837830
v 59.171322 57.059391 -142.837830
v 59.171322 118.659431 -9.219940
v 80.937691 118.659431 -9.219940
v 80.937691 57.059391 -2.714729
v 59.171322 57.059391 -2.714729
v 83.730583 145.513367 11.261121
v 61.964214 145.513367 11.261121
v 61.964214 145.513367 -21.715082
v 83.730583 145.513367 -21.715082
v 61.964214 128.778015 18.857803
v 83.730583 128.778015 18.857803
v 83.730583 128.778015 -14.118399
v 61.964214 128.778015 -14.118399
v 83.730583 129.284286 -124.680595
v 61.964214 129.284286 -124.680595
v 83.730583 146.019638 -114.637039
v 61.964214 146.019638 -114.637039
v 59.171322 95.128746 -70.173164
v 80.937691 95.128746 -70.173164
v 80.937691 57.059391 -70.173164
v 59.171322 57.059391 -70.173164
vt 0.375000 0.000000
vt 0.625000 0.000000
vt 0.375000 0.250000
vt 0.625000 0.250000
vt 0.375000 0.500000
vt 0.625000 0.500000
vt 0.375000 0.750000
vt 0.625000 0.750000
vt 0.375000 1.000000
vt 0.625000 1.000000
vt 0.875000 0.000000
vt 0.875000 0.250000
vt 0.125000 0.000000
vt 0.125000 0.250000
vt 0.625000 0.302022
vt 0.677022 0.250000
vt 0.322978 0.250000
vt 0.375000 0.302022
vt 0.322978 0.000000
vt 0.375000 0.947978
vt 0.625000 0.947978
vt 0.677022 0.000000
vt 0.375000 0.250000
vt 0.625000 0.250000
vt 0.625000 0.302022
vt 0.375000 0.302022
vt 0.625000 0.250000
vt 0.375000 0.250000
vt 0.375000 0.302022
vt 0.625000 0.302022
vt 0.625000 0.302022
vt 0.375000 0.302022
vt 0.375000 0.302022
vt 0.625000 0.302022
vt 0.625000 0.436168
vt 0.811168 0.250000
vt 0.188832 0.250000
vt 0.375000 0.436168
vt 0.188832 0.000000
vt 0.375000 0.813832
vt 0.625000 0.813832
vt 0.811168 0.000000
vn 0.000000 -0.283144 0.959077
vn 0.000000 -0.078498 0.996914
vn 0.000000 -0.099448 0.995043
vn 0.000000 -0.283144 0.959077
vn 0.000000 1.000000 0.000000
vn 0.000000 0.999992 0.004021
vn 0.000000 0.999992 0.004021
vn 0.000000 1.000000 0.000000
vn 0.000000 0.236544 -0.971621
vn 0.000000 0.236544 -0.971621
vn 0.000000 0.236544 -0.971621
vn 0.000000 0.236544 -0.971621
vn 0.000000 -0.976623 0.214957
vn 0.000000 -0.672088 0.740472
vn 0.000000 -0.672088 0.740472
vn 0.000000 -0.976623 0.214957
vn -1.000000 0.000000 0.000000
vn -0.999159 0.040507 0.006404
vn -0.999487 0.031646 0.005003
vn -1.000000 0.000000 0.000000
vn 1.000000 0.000000 0.000000
vn 0.999487 -0.031646 -0.005003
vn 0.999159 -0.040507 -0.006404
vn 1.000000 0.000000 0.000000
vn 0.000000 0.932898 -0.360141
vn 0.000000 0.968395 -0.249420
vn 0.000000 0.968395 -0.249420
vn 0.000000 0.932898 -0.360141
vn 1.000000 0.000000 0.000000
vn 1.000000 0.000000 0.000000
vn 0.000000 -1.000000 0.000000
vn 0.000000 -1.000000 0.000000
vn -1.000000 0.000000 0.000000
vn -1.000000 0.000000 0.000000
vn 0.000000 0.321772 0.946817
vn 0.000000 0.314150 0.949373
vn -0.993756 0.110210 0.017423
vn -0.999566 0.029097 0.004600
vn 0.000000 -0.435732 -0.900077
vn 0.000000 -0.435732 -0.900077
vn 0.000000 -0.435732 -0.900077
vn 0.000000 -0.435732 -0.900077
vn 0.999566 -0.029097 -0.004600
vn 0.993756 -0.110210 -0.017423
vn 0.000000 0.413339 0.910577
vn 0.000000 0.413339 0.910577
vn 1.000000 -0.000000 0.000000
vn 1.000000 0.000000 0.000000
vn 0.000000 0.514584 -0.857440
vn 0.000000 0.514584 -0.857440
vn 0.000000 0.514584 -0.857440
vn 0.000000 0.514584 -0.857440
vn -1.000000 0.000000 0.000000
vn -1.000000 -0.000000 0.000000
vn 0.000000 -0.999990 -0.004579
vn 0.000000 -0.999990 -0.004579
vn 0.000000 -0.999990 -0.004579
vn 0.000000 -0.999990 -0.004579
vn 1.000000 -0.000000 0.000000
vn 1.000000 -0.000000 0.000000
vn 0.000000 0.999985 0.005448
vn 0.000000 0.999985 0.005448
vn -1.000000 -0.000000 0.000000
vn -1.000000 -0.000000 0.000000
vn 0.000000 0.990587 -0.136882
vn 0.000000 0.990587 -0.136882
vn 1.000000 -0.000000 0.000000
vn 1.000000 -0.000000 0.000000
vn 0.000000 -1.000000 0.000000
vn 0.000000 -1.000000 0.000000
vn -1.000000 0.000000 0.000000
vn -1.000000 0.000000 0.000000
g l_armrest1
f 1/1/1 3/3/2 4/4/3 2/2/4
f 13/23/5 16/26/6 15/25/7 14/24/8
f 5/5/9 7/7/10 8/8/11 6/6/12
f 11/20/13 1/9/14 2/10/15 12/21/16
f 2/2/17 4/4/18 9/16/19 12/22/20
f 11/19/21 10/17/22 3/3/23 1/1/24
f 10/18/25 26/38/26 25/35/27 9/15/28
f 27/39/29 26/37/30 10/17/22 11/19/21
f 27/40/31 11/20/13 12/21/16 28/41/32
f 9/16/19 25/36/33 28/42/34 12/22/20
f 3/3/2 18/28/35 17/27/36 4/4/3
f 4/4/18 17/27/37 20/30/38 9/15/19
f 9/15/39 20/30/40 19/29/41 10/18/42
f 10/18/22 19/29/43 18/28/44 3/3/23
f 18/28/35 13/23/45 14/24/46 17/27/36
f 19/29/43 16/26/47 13/23/48 18/28/44
f 22/31/49 24/34/50 23/33/51 21/32/52
f 17/27/37 14/24/53 15/25/54 20/30/38
f 20/30/55 22/31/56 21/32/57 19/29/58
f 19/29/43 21/32/59 23/33/60 16/26/47
f 16/26/6 23/33/61 24/34/62 15/25/7
f 15/25/54 24/34/63 22/31/64 20/30/38
f 26/38/26 5/5/65 6/6/66 25/35/27
f 7/13/67 5/14/68 26/37/30 27/39/29
f 7/7/69 27/40/31 28/41/32 8/8/70
f 25/36/33 6/12/71 8/11/72 28/42/34
